<svg id="Layer_1" xmlns="http://www.w3.org/2000/svg" xmlns:xlink="http://www.w3.org/1999/xlink" viewBox="0 0 1100 378"><style>.st3{fill:#3394de}.st6{fill:#b8861c}.st7{fill:#edcba8}.st8{fill:#ace}.st11{fill:#333}.st12{fill:#fff}.st14{fill:#ffe500}</style><defs><path id="SVGID_3_" d="M0 0h1100v378H0z"/></defs><clipPath id="SVGID_4_"><use xlink:href="#SVGID_3_" overflow="visible"/></clipPath><g clip-path="url(#SVGID_4_)"><path class="st3" d="M458.8 261.5h-32v-49.8c0-6-1-10.7-3.1-14.2-2.1-3.4-4.4-5.4-6.9-6-2.5-.6-4.5-.8-5.8-.8-6.7 0-10 3.1-10 9.2v61.6h-32V130.2l32-3.9v48.5l1.5-1.1 2.1-1.3c6.4-4.4 13.2-6.6 20.6-6.6 2.2 0 4.5.2 6.7.6 18 3.5 26.9 15.3 26.9 35.3v59.8zM467.2 112.2l30.1 22.6-30.1 23.4zM466.3 166.9h32v94.6h-32zM605.2 214.1c0 12.5-3.3 23.1-9.8 31.8-6.6 8.7-15.1 14.2-25.7 16.5-3.1.5-5.3.8-6.5.8-1.2.1-2.2.1-2.9.1-7.5 0-14.1-1.8-19.8-5.4l-1.5-1.1-1.3-1.1v46.4h-32V166.9h30.7v7.3l3.9-3c6.1-4.5 13.3-6.7 21.5-6.7 8.9 0 17.1 2.7 24.8 8.2 7.7 5.5 13.1 13 16.2 22.5.9 2.8 1.5 5.6 1.9 8.6.3 3 .5 6.5.5 10.3zM573 211c-.5-5.4-2-9.7-4.6-12.8-2.5-3.2-6-5.1-10.3-5.9-1.8-.2-3.1-.4-4-.4-4.9 0-9 1.7-12.3 5.2-3.2 3.4-5.1 8.1-5.6 13.9v6.8c0 5.9 1.7 10.5 5.2 13.9 3.5 3.4 7.8 5.1 13 5.1.6 0 1.8-.1 3.6-.4 4.6-.9 8.2-3.2 10.9-6.8 2.7-3.7 4.1-8.5 4.1-14.5.2-1.8.1-3.1 0-4.1zM750 261.5h-32v-51.3c0-8.4-2.5-14.2-7.4-17.5l-3-1.1c-1.4-.4-2.7-.6-3.8-.6-4.8 0-7.5 2.4-8.1 7.3v63.1h-32v-51c0-5.5-.8-9.8-2.4-12.7-1.6-3-4-4.9-7.3-6-1.5-.5-3-.8-4.5-.8-5.3 0-8.1 2.5-8.5 7.5v62.9h-32v-94.6h30.7v7.5c2.1-2 4.7-3.9 7.7-5.4 3-1.6 6-2.6 9.1-3.2 2.1-.5 4.5-.8 7.3-.8 3.1 0 6.3.4 9.5 1.2 3.2.8 6.1 2.1 8.5 3.7 2.4 1.6 4.6 3.7 6.4 6.1l1.7-1.9c6.4-6.1 14.4-9.2 24.1-9.2 4.4 0 8.8.8 13.3 2.2 15.1 5.4 22.6 17.1 22.6 35.1v59.5zM849 261.3h-30.9v-8.4l-1.9 1.3-2.6 1.9-5.8 3.2c-5.6 2.9-11.3 4.3-17.2 4.3-7.7 0-14.6-2.4-20.6-7.1-6-4.7-9.9-10.9-11.5-18.5-.6-3.4-.9-6.2-.9-8.6V167.1h32v48.1c0 11.6 3.9 18.6 11.6 21 2.1.8 4.2 1 6.4.8 3.6-.4 6.1-1.6 7.4-3.6 1.3-2 2-5.6 2-10.9v-55.4h32v94.2zM947.1 261.5h-32v-49.9c0-6.3-.9-10.9-2.6-13.9-1.8-3-4.7-5.1-8.9-6.2-.3-.1-1-.3-2.2-.5-1.2-.2-2.2-.3-2.9-.3-3 0-5.4.9-7.2 2.6-1.8 1.8-2.6 4-2.6 6.8v61.4h-32v-94.6h30.7v8.2l2.3-1.9c6.9-5.2 14-7.9 21.5-7.9 2.5 0 5.3.3 8.4 1 18.3 3.6 27.5 17.3 27.5 41.1v54.1zM1050 244.4l-26.8 20-36.7-50.3v47.2h-32V130.2l32-3.9v73.6l34.4-36 19.1 19.3-19.7 19.3 29.7 41.9z"/><g><defs><path id="SVGID_5_" d="M54.5 85h327v293h-327z"/></defs><clipPath id="SVGID_6_"><use xlink:href="#SVGID_5_" overflow="visible"/></clipPath><g clip-path="url(#SVGID_6_)"><path class="st6" d="M277 291.1c-1.8-57.9-26.7-61.9-58.6-61.9-26.3 0-49.5 2.7-57.9 36.1-47.2-17.6-115-40.5-103.9-22.4 15.2 24.8 33.1 18.4 33.1 18.4s32.3 26.7 66.6 47.3c-3.4 21.7-15.8 46.3-24.6 69.4h171.7c-6.1-15.3-13.7-31.3-19.2-46.6 30.3 1.3 56.1-.1 56.1-.1s10.5 15.8 37.5 4.9c19.9-8.2-51.5-31-100.8-45.1z"/><path class="st7" d="M261.8 378c-5.6-27.1-13.2-55.9-13.2-79.7 0-65.7-62-65.7-62 0 0 23.7-7.5 52.5-12.9 79.7h88.1z"/><path class="st8" d="M165.7 256.1s-51.5 74.5-71.4 84.7c0 0 16.3-2 20.5 1.3 3.6 2.9 3.3 13.7 5.7 14.3 5.2 1.3 57.7-56.8 56.3-81.5"/><path class="st3" d="M162.8 260.9s-45.5 65.3-63.1 74.1c0 0 13.6-.6 17.3 2.4 3.2 2.5 3.7 10.8 5.9 11.4 4.6 1.1 52.5-53.1 53.2-79.8"/><path class="st8" d="M168.2 254.1c-61.5 72.6-111.6 62.4-113.1 65.7-1.5 3.3 18.4 9.5 21.6 13.2 3.2 3.7 1 19.9 4.3 22.3 3.3 2.4 81.7-61.1 91.8-87.2"/><path class="st3" d="M163.9 265.1c-54.9 56.8-95.8 55-96.9 57.4-1 2.3 11.8 6.3 14.3 8.9 2.5 2.6 1.4 14.1 3.9 15.8 2.5 1.7 77-60.8 83.7-79.2"/><path class="st8" d="M279.4 267.6L158 250.1c-15.5 10.9 48.2 63.7 115.7 47.9 7.9-1.8 8-13.2 8.2-13.8-.1 0 9.6-12.3-2.5-16.6z"/><path class="st3" d="M162.6 257.6c4 1.9 24.9 14.1 44 18.3 30.5 6.8 51.8 5.3 65.2 2.3 8.3-1.9 9.4-1.5 5.8 4.6 0 0 1.7 4.7-1.7 8.4-2.6 2.9-32.7 10.3-65.7-.4-17-5.5-39-16.2-50.2-31-.1 0-3.2-5 2.6-2.2z"/><path class="st7" d="M301.4 196.9c4.4-8.5 7.5-17.4 9-26.1 6.5-39.9-25.5-56.6-65.3-63.1-39.9-6.5-73.8-2.1-80.3 37.8-1.5 8.9-1.4 18.5.1 28.3-18.7 6.7-31.4 17.9-33.8 32.3-4.7 28.9 34.2 59.3 86.9 67.9 52.7 8.6 99.2-7.8 104-36.7 2.1-14-5.8-28.4-20.6-40.4z"/><path class="st6" d="M310.7 150.3c2.2-15.7-1.7-46.7-12.4-48.4-5.5-.9-11.8 6.1-16.9 15.2-10.4-4.9-22.7-8.1-35.9-10.3-13.5-2.2-26.3-2.9-37.6-1.3-2-10.5-5.7-19.3-11.3-20.2-10.9-1.8-24.9 27.6-27.4 42.9-.1.9 30.7 6.8 43.4 17.7 20.2 17.4-2.7 66.9-2.7 66.9l17 5.1v.1h.2l.2.1v-.1l17.8.6s-6.4-55.4 18.7-64.3c26.1-9.3 47.1-3 46.9-4z"/><path class="st11" d="M245.9 216.8c-1 6.1-9.9 9.7-19.9 8-10-1.6-17.3-7.9-16.3-13.9 1-6.1 9.9-9.7 19.9-8 9.9 1.6 17.2 7.8 16.3 13.9zM208.4 176.1c1-6.2-3.2-12-9.3-13-6.2-1-12 3.2-13 9.3-1 6.2 3.2 12 9.3 13 6.1 1.1 11.9-3.1 13-9.3z"/><path class="st12" d="M202.4 171.9c-.2 1.5-1.6 2.4-3.1 2.2-1.5-.2-2.4-1.6-2.2-3.1.2-1.5 1.6-2.4 3.1-2.2 1.4.3 2.4 1.6 2.2 3.1z"/><path class="st11" d="M280.4 187.9c1-6.2-3.2-12-9.3-13-6.2-1-12 3.2-13 9.3-1 6.2 3.2 12 9.3 13 6.2 1 12-3.1 13-9.3z"/><path class="st12" d="M274.4 183.7c-.2 1.5-1.6 2.4-3.1 2.2-1.5-.2-2.4-1.6-2.2-3.1.2-1.5 1.6-2.4 3.1-2.2 1.5.2 2.5 1.6 2.2 3.1z"/><path d="M246 117c-.4-.1-.7-.1-1.1-.2-.7-.1-1.5-.2-2.2-.4-92.6-14-83.4 36.2-78.1 33.2 8.7-4.9 23.1 5 40.5 5.3 25.4.5 27.4-17 35.9-17.8 7.8 3.4 4.1 20.6 28.3 28.2 16.6 5.2 33.4.5 40.1 7.9 4.2 4.6 28.9-40-63.4-56.2z" fill="#603813"/><g><path class="st14" d="M229.2 132.9c-1.7 10.4-14.5 17-28.5 14.8-14-2.3-24-12.6-22.3-23.1 1.7-10.4 14.5-17 28.5-14.8 14 2.3 24 12.6 22.3 23.1z"/><path class="st12" d="M221.2 129.6c-1.1 7-9.8 11.5-19.2 9.9-9.5-1.6-16.2-8.5-15.1-15.5 1.2-7 9.8-11.5 19.2-9.9 9.5 1.5 16.3 8.4 15.1 15.5z"/><g><path class="st14" d="M303 144.9c-1.7 10.4-14.5 17-28.5 14.8-14-2.3-24-12.6-22.3-23.1 1.7-10.4 14.5-17 28.5-14.8 14 2.4 24 12.7 22.3 23.1z"/><path class="st12" d="M295 141.6c-1.2 7-9.8 11.5-19.2 9.9-9.5-1.6-16.2-8.5-15.1-15.5 1.2-7 9.8-11.5 19.2-9.9 9.5 1.6 16.3 8.5 15.1 15.5z"/></g></g><g><path class="st12" d="M237.9 241.8l-2.4 14.5-28.9-5.3 2.4-14.4"/><path class="st11" d="M254.6 237c-.2-.3-3.4 1.1-9 2.1-2.8.5-6.1.9-9.9.9-3.7.1-7.8-.2-12.1-1-4.2-.7-8.2-1.9-11.6-3.2-3.5-1.3-6.4-2.9-8.8-4.4-4.8-3-7.3-5.6-7.5-5.3-.3.2 1.7 3.4 6.5 6.9 1.7 1.2 3.7 2.5 5.9 3.7l-2.6 14.1c-.1.6.2 1.1.8 1.3h.1l29 5.3c.3.1.6 0 .8-.2.2-.2.4-.4.5-.7l2.6-14.3c2.5-.3 4.8-.7 6.7-1.3 5.7-1.4 8.8-3.6 8.6-3.9zm-46.7 13.1l2.3-12.4c.3.1.6.3 1 .4 3.3 1.4 7.1 2.6 11.1 3.4l-2 10.8-12.4-2.2zm26.7 4.9l-12.3-2.3 2-10.9c4 .6 7.9.8 11.5.6.4 0 .8 0 1.1-.1l-2.3 12.7z"/></g></g><path clip-path="url(#SVGID_6_)" fill="none" d="M49.9 36h336.3v341.9H49.9z"/></g></g></svg>